<svg xmlns="http://www.w3.org/2000/svg" xmlns:xlink="http://www.w3.org/1999/xlink" version="1.1" x="0px" y="0px" viewBox="0 0 100 100" enable-background="new 0 0 100 100" xml:space="preserve"><g><path d="M23.143,84.85c-1.747,0-3.163-1.416-3.163-3.163c0-3.156-1.229-6.123-3.461-8.355c-2.232-2.231-5.199-3.46-8.355-3.46   C6.416,69.872,5,68.456,5,66.709s1.416-3.163,3.163-3.163c4.845,0,9.401,1.887,12.828,5.313c3.427,3.427,5.314,7.983,5.314,12.829   C26.305,83.434,24.889,84.85,23.143,84.85z"/></g><g><path d="M38.121,84.85c-1.747,0-3.163-1.416-3.163-3.163c0-7.157-2.787-13.886-7.848-18.947c-5.061-5.061-11.79-7.848-18.947-7.848   C6.416,54.892,5,53.476,5,51.729c0-1.747,1.416-3.163,3.163-3.163c8.847,0,17.164,3.445,23.421,9.701   c6.256,6.256,9.701,14.573,9.701,23.42C41.284,83.434,39.868,84.85,38.121,84.85z"/></g><g><path d="M8.974,84.838c-1.044,0-2.056-0.427-2.799-1.162C5.44,82.94,5.021,81.92,5.021,80.884c0-1.044,0.419-2.064,1.154-2.799   c0.743-0.735,1.755-1.162,2.799-1.162c1.036,0,2.056,0.427,2.791,1.162c0.735,0.735,1.162,1.755,1.162,2.799   c0,1.036-0.427,2.056-1.162,2.792C11.03,84.411,10.01,84.838,8.974,84.838z"/></g><g><path d="M91.837,84.85H51.904c-1.747,0-3.163-1.416-3.163-3.163s1.416-3.163,3.163-3.163h36.77V21.476H11.326v17.396   c0,1.747-1.416,3.163-3.163,3.163S5,40.619,5,38.872V18.313c0-1.747,1.416-3.163,3.163-3.163h83.674   c1.747,0,3.163,1.416,3.163,3.163v63.375C95,83.434,93.584,84.85,91.837,84.85z"/></g></svg>
