<svg xmlns="http://www.w3.org/2000/svg" xmlns:xlink="http://www.w3.org/1999/xlink" version="1.1" x="0px" y="0px" viewBox="0 0 100 100" enable-background="new 0 0 100 100" xml:space="preserve"><g><path d="M60.9,50.2c0,6-4.9,11-10.9,11s-10.9-5-10.9-11S44,39.2,50,39.2S60.9,44,60.9,50.2z"/><g><path d="M18.2,50.2c0-10.6,5.2-19.9,13.3-25.6l-1.4-1.8c-8.6,6.1-14.1,16.2-14.1,27.6c0,11.2,5.4,21.1,13.8,27.3l1.4-1.8    C23.3,69.8,18.2,60.7,18.2,50.2z"/><path d="M84,50.2c0-11.2-5.5-21.3-14.1-27.4l-1.3,1.8c7.9,5.7,13.2,15.1,13.2,25.6c0,10.4-5.1,19.5-12.8,25.4l1.4,1.8    C78.6,71.2,84,61.3,84,50.2z"/><path d="M92.8,50.2c0,13.9-6.8,26.4-17.2,34.2l1.4,1.8C87.8,77.9,95,64.8,95,50.1c0-15-7.4-28.2-18.6-36.3L75,15.5    C85.9,23.3,92.8,35.9,92.8,50.2z"/><path d="M7.2,50.2c0-14.2,7.1-26.9,17.7-34.7l-1.4-1.8C12.3,22,5,35.2,5,50.2C5,65,12.2,78.1,23.3,86.3l1.4-1.8    C14,76.7,7.2,64.3,7.2,50.2z"/><path d="M29.1,50.2c0-7,3.5-13.2,8.9-16.9l-1.4-1.8c-5.9,4.2-9.8,11-9.8,18.6c0,7.5,3.8,14.3,9.3,18.5l1.4-1.8    C32.4,62.9,29.1,56.9,29.1,50.2z"/><path d="M73.1,50.2c0-7.6-3.9-14.4-9.6-18.6l-1.4,1.8c5.2,3.8,8.7,9.9,8.7,16.8c0,6.8-3.3,12.8-8.2,16.5l1.3,1.8    C69.4,64.1,73.1,57.7,73.1,50.2z"/></g></g></svg>
